<svg xmlns="http://www.w3.org/2000/svg" viewBox="0 0 240 240"><defs><linearGradient id="p" x1="0" y1="0" x2="1" y2="1"><stop stop-color="#ffafc5"/><stop offset="1" stop-color="#e45c82"/></linearGradient><filter id="s"><feDropShadow dx="0" dy="8" stdDeviation="7" flood-color="#171c42" flood-opacity=".35"/></filter></defs><ellipse cx="120" cy="211" rx="69" ry="12" fill="#171c42" opacity=".3"/><path d="M46 171c-7-53 5-111 74-111s81 58 74 111c-4 31-29 39-46 21l-14 17-14-17-14 17-14-17c-17 18-42 10-46-21Z" fill="url(#p)" stroke="#7b3b61" stroke-width="8" filter="url(#s)"/><path d="M120 61V35" stroke="#5f7546" stroke-width="13" stroke-linecap="round"/><path d="m73 111 28 21-28 17M167 111l-28 21 28 17" fill="#fffbe5" stroke="#7b3b61" stroke-width="7"/><path d="M86 165c22 17 46 17 68 0" fill="none" stroke="#7b3b61" stroke-width="8" stroke-linecap="round"/><path d="M72 75c34 16 82 16 116 0" fill="none" stroke="#ffd5e1" stroke-width="7" opacity=".8"/></svg>